<svg width="116" height="116" viewBox="0 0 116 116" fill="none" xmlns="http://www.w3.org/2000/svg">
<g id="phone">
<path id="Path 16" d="M61.5805 88.9507L76.2464 74.2847C76.5891 73.9421 77.1281 73.8944 77.5256 74.1716L101.075 90.596C101.585 90.9521 101.65 91.6831 101.21 92.1233L91.7477 101.586C91.0374 102.296 90.0362 102.606 89.0612 102.364C82.815 100.817 58.9087 93.908 39.9317 74.931C20.9548 55.954 14.0459 32.0477 12.4985 25.8015C12.257 24.8265 12.5669 23.8253 13.2772 23.115L22.7394 13.6528C23.1796 13.2126 23.9106 13.2772 24.2667 13.7878L40.6911 37.3371C40.9683 37.7346 40.9207 38.2736 40.578 38.6163L25.9121 53.2822" stroke="white" stroke-width="5" stroke-linecap="round"/>
</g>
</svg>
